HIERARCHY
ROOT Hips
{
  OFFSET 0.000 57.771 0.000
  CHANNELS 6 Xposition Yposition Zposition Zrotation Xrotation Yrotation
  JOINT LeftUpLeg
  {
    OFFSET 6.995 0.557 3.141
    CHANNELS 6 Xposition Yposition Zposition Zrotation Xrotation Yrotation
    JOINT LeftLeg
    {
      OFFSET 0.000 -25.560 0.000
      CHANNELS 6 Xposition Yposition Zposition Zrotation Xrotation Yrotation
      JOINT LeftFoot
      {
        OFFSET 0.000 -32.768 0.000
        CHANNELS 6 Xposition Yposition Zposition Zrotation Xrotation Yrotation
        End Site
        {
          OFFSET 0.000 0.000 8.601
        }
      }
    }
  }
  JOINT RightUpLeg
  {
    OFFSET -6.995 0.557 3.141
    CHANNELS 6 Xposition Yposition Zposition Zrotation Xrotation Yrotation
    JOINT RightLeg
    {
      OFFSET 0.000 -25.560 0.000
      CHANNELS 6 Xposition Yposition Zposition Zrotation Xrotation Yrotation
      JOINT RightFoot
      {
        OFFSET 0.000 -32.768 0.000
        CHANNELS 6 Xposition Yposition Zposition Zrotation Xrotation Yrotation
        End Site
        {
          OFFSET 0.000 0.000 8.601
        }
      }
    }
  }
  JOINT Spine
  {
    OFFSET 0.000 29.241 0.000
    CHANNELS 6 Xposition Yposition Zposition Zrotation Xrotation Yrotation
    JOINT Spine1
    {
      OFFSET 0.000 21.356 0.000
      CHANNELS 6 Xposition Yposition Zposition Zrotation Xrotation Yrotation
      JOINT LeftShoulder
      {
        OFFSET 1.219 -0.502 0.897
        CHANNELS 6 Xposition Yposition Zposition Zrotation Xrotation Yrotation
        JOINT LeftArm
        {
          OFFSET 13.751 0.000 0.000
          CHANNELS 6 Xposition Yposition Zposition Zrotation Xrotation Yrotation
          JOINT LeftForeArm
          {
            OFFSET 23.300 0.000 0.000
            CHANNELS 6 Xposition Yposition Zposition Zrotation Xrotation Yrotation
            JOINT LeftHand
            {
              OFFSET 23.300 0.000 0.000
              CHANNELS 6 Xposition Yposition Zposition Zrotation Xrotation Yrotation
              JOINT LeftHandThumb1
              {
                OFFSET 4.877 -1.044 3.608
                CHANNELS 6 Xposition Yposition Zposition Zrotation Xrotation Yrotation
                JOINT LeftHandThumb2
                {
                  OFFSET 2.665 0.000 0.000
                  CHANNELS 6 Xposition Yposition Zposition Zrotation Xrotation Yrotation
                  JOINT LeftHandThumb3
                  {
                    OFFSET 2.543 0.000 0.000
                    CHANNELS 6 Xposition Yposition Zposition Zrotation Xrotation Yrotation
                    End Site
                    {
                      OFFSET 2.667 0.000 -0.000
                    }
                  }
                }
              }
              JOINT LeftHandIndex1
              {
                OFFSET 9.232 -0.301 2.144
                CHANNELS 6 Xposition Yposition Zposition Zrotation Xrotation Yrotation
                JOINT LeftHandIndex2
                {
                  OFFSET 4.225 0.000 0.000
                  CHANNELS 6 Xposition Yposition Zposition Zrotation Xrotation Yrotation
                  JOINT LeftHandIndex3
                  {
                    OFFSET 2.654 -0.000 0.000
                    CHANNELS 6 Xposition Yposition Zposition Zrotation Xrotation Yrotation
                    End Site
                    {
                      OFFSET 1.958 -0.000 0.000
                    }
                  }
                }
              }
              JOINT LeftHandMiddle1
              {
                OFFSET 8.920 0.000 0.000
                CHANNELS 6 Xposition Yposition Zposition Zrotation Xrotation Yrotation
                JOINT LeftHandMiddle2
                {
                  OFFSET 4.863 -0.000 0.000
                  CHANNELS 6 Xposition Yposition Zposition Zrotation Xrotation Yrotation
                  JOINT LeftHandMiddle3
                  {
                    OFFSET 2.765 -0.000 -0.000
                    CHANNELS 6 Xposition Yposition Zposition Zrotation Xrotation Yrotation
                    End Site
                    {
                      OFFSET 2.006 0.000 0.000
                    }
                  }
                }
              }
              JOINT LeftHandRing1
              {
                OFFSET 8.689 -0.126 -2.087
                CHANNELS 6 Xposition Yposition Zposition Zrotation Xrotation Yrotation
                JOINT LeftHandRing2
                {
                  OFFSET 4.538 -0.000 0.000
                  CHANNELS 6 Xposition Yposition Zposition Zrotation Xrotation Yrotation
                  JOINT LeftHandRing3
                  {
                    OFFSET 2.305 0.000 -0.000
                    CHANNELS 6 Xposition Yposition Zposition Zrotation Xrotation Yrotation
                    End Site
                    {
                      OFFSET 1.923 0.000 0.000
                    }
                  }
                }
              }
              JOINT LeftHandPinky1
              {
                OFFSET 8.391 -0.817 -3.758
                CHANNELS 6 Xposition Yposition Zposition Zrotation Xrotation Yrotation
                JOINT LeftHandPinky2
                {
                  OFFSET 3.044 0.000 0.000
                  CHANNELS 6 Xposition Yposition Zposition Zrotation Xrotation Yrotation
                  JOINT LeftHandPinky3
                  {
                    OFFSET 1.975 -0.000 0.000
                    CHANNELS 6 Xposition Yposition Zposition Zrotation Xrotation Yrotation
                    End Site
                    {
                      OFFSET 1.667 -0.000 0.000
                    }
                  }
                }
              }
            }
          }
        }
      }
      JOINT RightShoulder
      {
        OFFSET -1.219 -0.502 0.897
        CHANNELS 6 Xposition Yposition Zposition Zrotation Xrotation Yrotation
        JOINT RightArm
        {
          OFFSET -13.751 0.000 0.000
          CHANNELS 6 Xposition Yposition Zposition Zrotation Xrotation Yrotation
          JOINT RightForeArm
          {
            OFFSET -23.300 0.000 0.000
            CHANNELS 6 Xposition Yposition Zposition Zrotation Xrotation Yrotation
            JOINT RightHand
            {
              OFFSET -23.300 0.000 0.000
              CHANNELS 6 Xposition Yposition Zposition Zrotation Xrotation Yrotation
              JOINT RightHandThumb1
              {
                OFFSET -4.877 -1.044 3.608
                CHANNELS 6 Xposition Yposition Zposition Zrotation Xrotation Yrotation
                JOINT RightHandThumb2
                {
                  OFFSET -2.665 -0.000 0.000
                  CHANNELS 6 Xposition Yposition Zposition Zrotation Xrotation Yrotation
                  JOINT RightHandThumb3
                  {
                    OFFSET -2.543 -0.000 0.000
                    CHANNELS 6 Xposition Yposition Zposition Zrotation Xrotation Yrotation
                    End Site
                    {
                      OFFSET -2.667 0.000 0.000
                    }
                  }
                }
              }
              JOINT RightHandIndex1
              {
                OFFSET -9.232 -0.301 2.144
                CHANNELS 6 Xposition Yposition Zposition Zrotation Xrotation Yrotation
                JOINT RightHandIndex2
                {
                  OFFSET -4.225 0.000 0.000
                  CHANNELS 6 Xposition Yposition Zposition Zrotation Xrotation Yrotation
                  JOINT RightHandIndex3
                  {
                    OFFSET -2.654 -0.000 0.000
                    CHANNELS 6 Xposition Yposition Zposition Zrotation Xrotation Yrotation
                    End Site
                    {
                      OFFSET -1.958 0.000 0.000
                    }
                  }
                }
              }
              JOINT RightHandMiddle1
              {
                OFFSET -8.920 0.000 0.000
                CHANNELS 6 Xposition Yposition Zposition Zrotation Xrotation Yrotation
                JOINT RightHandMiddle2
                {
                  OFFSET -4.863 -0.000 0.000
                  CHANNELS 6 Xposition Yposition Zposition Zrotation Xrotation Yrotation
                  JOINT RightHandMiddle3
                  {
                    OFFSET -2.765 0.000 0.000
                    CHANNELS 6 Xposition Yposition Zposition Zrotation Xrotation Yrotation
                    End Site
                    {
                      OFFSET -2.006 -0.000 0.000
                    }
                  }
                }
              }
              JOINT RightHandRing1
              {
                OFFSET -8.689 -0.126 -2.087
                CHANNELS 6 Xposition Yposition Zposition Zrotation Xrotation Yrotation
                JOINT RightHandRing2
                {
                  OFFSET -4.538 -0.000 -0.000
                  CHANNELS 6 Xposition Yposition Zposition Zrotation Xrotation Yrotation
                  JOINT RightHandRing3
                  {
                    OFFSET -2.305 -0.000 0.000
                    CHANNELS 6 Xposition Yposition Zposition Zrotation Xrotation Yrotation
                    End Site
                    {
                      OFFSET -1.923 0.000 0.000
                    }
                  }
                }
              }
              JOINT RightHandPinky1
              {
                OFFSET -8.391 -0.817 -3.758
                CHANNELS 6 Xposition Yposition Zposition Zrotation Xrotation Yrotation
                JOINT RightHandPinky2
                {
                  OFFSET -3.044 -0.000 0.000
                  CHANNELS 6 Xposition Yposition Zposition Zrotation Xrotation Yrotation
                  JOINT RightHandPinky3
                  {
                    OFFSET -1.975 -0.000 0.000
                    CHANNELS 6 Xposition Yposition Zposition Zrotation Xrotation Yrotation
                    End Site
                    {
                      OFFSET -1.667 -0.000 0.000
                    }
                  }
                }
              }
            }
          }
        }
      }
      JOINT Neck
      {
        OFFSET 0.000 0.697 0.000
        CHANNELS 6 Xposition Yposition Zposition Zrotation Xrotation Yrotation
        JOINT Head
        {
          OFFSET 0.000 6.299 0.000
          CHANNELS 6 Xposition Yposition Zposition Zrotation Xrotation Yrotation
          End Site
          {
            OFFSET 0.000 11.842 0.000
          }
        }
      }
    }
  }
}
MOTION
Frames:	4
Frame Time:	0.033333
-46.18354 67.32191 -195.32556 1.37590 -5.15113 10.67283 8.36237 -0.47936 3.55230 10.00502 18.97464 47.06421 0.32043 -23.46756 0.02869 -15.33656 2.65185 -24.05447 0.09244 -32.51690 -0.16589 2.31860 8.86261 -15.48328 -7.84185 1.28760 3.04774 3.09178 -17.93506 27.57444 1.61866 -24.18879 0.17428 -41.08964 35.60769 12.06739 -0.63172 -31.98795 -0.48147 -7.41514 11.33232 13.35400 0.20819 30.20453 -0.12408 -0.61174 2.13658 5.37920 0.18089 22.28910 -0.07417 0.06275 1.81530 5.21722 0.74763 -0.67597 0.93516 -15.72272 21.13121 -47.47993 12.50851 -0.57071 0.32368 -30.39454 -36.60103 2.07235 17.80951 -0.10368 0.52395 143.81941 -10.37092 -31.26692 17.45144 0.17806 -0.35033 -177.29652 -16.56219 85.11372 4.87701 -1.04401 3.60801 -41.57595 -8.45725 -7.72882 2.66497 0.00001 0.00000 0.00000 0.00000 5.00000 2.54300 0.00000 0.00001 -0.00000 0.00000 60.00000 9.23199 -0.30099 2.14400 -80.00000 -0.00000 0.00000 4.22501 0.00000 0.00001 -90.00000 0.00000 0.00000 2.65401 -0.00001 0.00000 -70.00000 0.00000 0.00000 8.92001 0.00000 0.00000 -80.00000 -0.00000 0.00000 4.86301 -0.00001 0.00001 -90.00000 0.00000 0.00000 2.76499 -0.00001 -0.00001 -70.00000 0.00000 0.00000 8.68901 -0.12600 -2.08700 -80.00000 -0.00000 0.00000 4.53799 -0.00001 0.00002 -90.00000 0.00000 0.00000 2.30500 0.00000 -0.00002 -70.00000 0.00000 0.00000 8.39100 -0.81700 -3.75799 -80.00000 -0.00000 0.00000 3.04401 0.00001 0.00000 -90.00000 0.00000 0.00000 1.97499 -0.00001 0.00000 -70.00000 0.00000 0.00000 -0.71746 -0.33732 1.04453 9.59236 14.17252 53.89596 -12.37642 -0.12153 -0.02428 72.31265 -2.24919 41.18975 -19.24986 -0.16821 0.51110 100.66162 -4.32747 45.73728 -15.51995 -0.40441 0.46355 65.66543 37.64095 -11.37215 -4.87700 -1.04400 3.60800 37.43813 21.26627 8.20656 -2.66498 -0.00001 0.00000 -0.00000 -0.00000 -5.00000 -2.54300 -0.00001 0.00000 0.00000 -0.00000 -60.00000 -9.23199 -0.30100 2.14400 80.00000 0.00000 0.00000 -4.22500 0.00001 0.00001 90.00000 -0.00000 0.00001 -2.65402 -0.00001 0.00001 69.99999 -0.00000 0.00000 -8.92000 0.00000 0.00001 80.00000 0.00000 0.00000 -4.86300 -0.00001 0.00001 90.00000 -0.00000 0.00001 -2.76499 0.00000 0.00001 69.99999 -0.00000 0.00000 -8.68900 -0.12600 -2.08701 80.00000 0.00000 0.00000 -4.53798 -0.00001 -0.00001 90.00000 -0.00000 0.00001 -2.30501 -0.00001 0.00001 69.99999 -0.00000 0.00000 -8.39100 -0.81701 -3.75800 80.00000 0.00000 0.00000 -3.04400 -0.00001 0.00001 90.00000 -0.00000 0.00001 -1.97500 -0.00002 0.00000 69.99999 -0.00000 0.00000 -0.00000 0.73900 0.00000 0.00001 -0.00006 -0.00001 0.12210 6.77159 -0.08473 -1.85512 -11.46617 13.42747 
-44.90167 68.39099 -194.67494 1.88464 -7.00960 8.03319 8.41235 -0.47206 3.46680 1.04464 20.05717 29.83187 1.04262 -24.38686 -1.55541 -6.84997 -6.74529 -4.93095 0.05750 -32.74009 -0.06936 1.39429 9.44567 -9.76938 -7.30274 1.09100 3.16313 13.42701 -13.61079 34.26695 2.25952 -25.17922 0.44511 -54.80045 35.84563 10.70154 -0.45400 -30.86472 -0.59848 -2.96940 17.62792 5.53578 0.22513 30.62450 -0.14251 -0.91343 1.95443 9.10057 0.13444 22.59995 -0.09506 0.00972 1.84059 9.10099 0.88905 -0.71231 0.85403 -18.38680 19.18945 -41.83666 12.90582 -0.68278 -0.18557 -35.62204 -16.23671 -16.23483 17.61002 -1.09566 0.35164 138.50896 -5.43424 -39.34246 17.23457 0.44062 -0.17615 161.12752 -34.01372 67.78484 4.87701 -1.04401 3.60801 -41.57595 -8.45725 -7.72882 2.66497 0.00001 0.00000 0.00000 0.00000 5.00000 2.54300 0.00000 0.00001 -0.00000 0.00000 60.00000 9.23199 -0.30099 2.14400 -80.00000 -0.00000 0.00000 4.22501 0.00000 0.00001 -90.00000 0.00000 0.00000 2.65401 -0.00001 0.00000 -70.00000 0.00000 0.00000 8.92001 0.00000 0.00000 -80.00000 -0.00000 0.00000 4.86301 -0.00001 0.00001 -90.00000 0.00000 0.00000 2.76499 -0.00001 -0.00001 -70.00000 0.00000 0.00000 8.68901 -0.12600 -2.08700 -80.00000 -0.00000 0.00000 4.53799 -0.00001 0.00002 -90.00000 0.00000 0.00000 2.30500 0.00000 -0.00002 -70.00000 0.00000 0.00000 8.39100 -0.81700 -3.75799 -80.00000 -0.00000 0.00000 3.04401 0.00001 0.00000 -90.00000 0.00000 0.00000 1.97499 -0.00001 0.00000 -70.00000 0.00000 0.00000 -0.77748 -0.32491 0.96369 11.92560 13.84196 48.40752 -12.48948 -0.10649 -0.03198 69.01117 -0.52513 40.62827 -19.72102 -0.06477 0.42174 112.34187 -4.84024 45.74009 -15.26526 -0.48130 0.55801 44.03482 14.21579 -15.35470 -4.87700 -1.04400 3.60800 37.43813 21.26627 8.20656 -2.66498 -0.00001 0.00000 -0.00000 -0.00000 -5.00000 -2.54300 -0.00001 0.00000 0.00000 -0.00000 -60.00000 -9.23199 -0.30100 2.14400 80.00000 0.00000 0.00000 -4.22500 0.00001 0.00001 90.00000 -0.00000 0.00001 -2.65402 -0.00001 0.00001 69.99999 -0.00000 0.00000 -8.92000 0.00000 0.00001 80.00000 0.00000 0.00000 -4.86300 -0.00001 0.00001 90.00000 -0.00000 0.00001 -2.76499 0.00000 0.00001 69.99999 -0.00000 0.00000 -8.68900 -0.12600 -2.08701 80.00000 0.00000 0.00000 -4.53798 -0.00001 -0.00001 90.00000 -0.00000 0.00001 -2.30501 -0.00001 0.00001 69.99999 -0.00000 0.00000 -8.39100 -0.81701 -3.75800 80.00000 0.00000 0.00000 -3.04400 -0.00001 0.00001 90.00000 -0.00000 0.00001 -1.97500 -0.00002 0.00000 69.99999 -0.00000 0.00000 -0.00000 0.74660 0.00000 0.00001 -0.00006 -0.00001 0.09723 6.84250 -0.08348 -1.66531 -10.19157 8.13748 
-43.15207 69.46476 -194.15956 2.68356 -8.80466 8.32836 7.71894 -0.59344 3.46427 -6.74138 20.89528 7.53634 0.70346 -24.68065 -2.93364 4.60392 -9.42190 18.69606 0.07216 -33.82975 0.01654 0.50597 10.37658 -4.77024 -6.60403 0.89155 3.27736 27.31810 -11.98935 38.55746 2.77889 -24.53597 1.04596 -69.89565 39.47051 12.47620 -0.56316 -31.58308 -0.39029 0.52192 21.33965 -0.96395 0.15767 30.86740 -0.12727 -0.99027 1.96746 11.38172 0.06877 22.74393 -0.08120 -0.11588 1.86611 11.44035 1.09061 -0.69331 0.71650 -19.18834 15.69812 -34.73877 13.36726 -0.72529 -0.85259 -40.12496 0.45141 -33.32510 17.72135 -1.29538 0.59342 137.69231 2.97935 -50.05174 17.19709 0.45935 -0.06833 150.27904 -40.00988 50.19642 4.87701 -1.04401 3.60801 -41.57595 -8.45725 -7.72882 2.66497 0.00001 0.00000 0.00000 0.00000 5.00000 2.54300 0.00000 0.00001 -0.00000 0.00000 60.00000 9.23199 -0.30099 2.14400 -80.00000 -0.00000 0.00000 4.22501 0.00000 0.00001 -90.00000 0.00000 0.00000 2.65401 -0.00001 0.00000 -70.00000 0.00000 0.00000 8.92001 0.00000 0.00000 -80.00000 -0.00000 0.00000 4.86301 -0.00001 0.00001 -90.00000 0.00000 0.00000 2.76499 -0.00001 -0.00001 -70.00000 0.00000 0.00000 8.68901 -0.12600 -2.08700 -80.00000 -0.00000 0.00000 4.53799 -0.00001 0.00002 -90.00000 0.00000 0.00000 2.30500 0.00000 -0.00002 -70.00000 0.00000 0.00000 8.39100 -0.81700 -3.75799 -80.00000 -0.00000 0.00000 3.04401 0.00001 0.00000 -90.00000 0.00000 0.00000 1.97499 -0.00001 0.00000 -70.00000 0.00000 0.00000 -0.86394 -0.34592 0.86196 14.35506 12.83836 41.72600 -12.44169 -0.09625 -0.03048 65.75903 1.42526 38.60375 -20.05712 0.03347 0.31060 120.33006 -2.66227 45.42941 -15.05404 -0.41984 0.47411 40.75820 14.85108 -17.64946 -4.87700 -1.04400 3.60800 37.43813 21.26627 8.20656 -2.66498 -0.00001 0.00000 -0.00000 -0.00000 -5.00000 -2.54300 -0.00001 0.00000 0.00000 -0.00000 -60.00000 -9.23199 -0.30100 2.14400 80.00000 0.00000 0.00000 -4.22500 0.00001 0.00001 90.00000 -0.00000 0.00001 -2.65402 -0.00001 0.00001 69.99999 -0.00000 0.00000 -8.92000 0.00000 0.00001 80.00000 0.00000 0.00000 -4.86300 -0.00001 0.00001 90.00000 -0.00000 0.00001 -2.76499 0.00000 0.00001 69.99999 -0.00000 0.00000 -8.68900 -0.12600 -2.08701 80.00000 0.00000 0.00000 -4.53798 -0.00001 -0.00001 90.00000 -0.00000 0.00001 -2.30501 -0.00001 0.00001 69.99999 -0.00000 0.00000 -8.39100 -0.81701 -3.75800 80.00000 0.00000 0.00000 -3.04400 -0.00001 0.00001 90.00000 -0.00000 0.00001 -1.97500 -0.00002 0.00000 69.99999 -0.00000 0.00000 -0.00000 0.74932 0.00000 0.00001 -0.00006 -0.00001 0.07574 6.85514 -0.06981 -2.58900 -9.09009 2.89866 
-41.88394 71.15981 -194.70935 2.74214 -9.50503 17.77414 6.85297 -0.64882 3.39915 -6.87397 20.33994 -9.84301 -0.16684 -25.39079 -2.38942 9.79113 -6.30250 26.65294 0.06516 -34.61297 0.03774 -0.07090 10.94148 -1.44192 -6.95506 0.98069 3.29832 40.18261 -17.54894 35.55912 3.39969 -25.18342 1.78945 -83.65240 41.44226 17.52404 -0.58189 -30.08467 -0.21901 -5.74872 27.23102 9.81889 0.05286 30.30052 -0.05687 -0.57873 1.63678 8.51237 -0.01138 22.53769 -0.04852 -0.05517 1.82627 8.51836 1.24263 -0.66598 0.63181 -19.14610 12.94247 -29.53284 13.94086 -0.62913 -1.01514 -45.56974 10.06970 -44.27620 18.27866 -0.95837 0.77024 142.79695 7.55109 -60.27434 17.30708 0.32772 -0.06386 154.78638 -33.23076 64.28156 4.87701 -1.04401 3.60801 -41.57595 -8.45725 -7.72882 2.66497 0.00001 0.00000 0.00000 0.00000 5.00000 2.54300 0.00000 0.00001 -0.00000 0.00000 60.00000 9.23199 -0.30099 2.14400 -80.00000 -0.00000 0.00000 4.22501 0.00000 0.00001 -90.00000 0.00000 0.00000 2.65401 -0.00001 0.00000 -70.00000 0.00000 0.00000 8.92001 0.00000 0.00000 -80.00000 -0.00000 0.00000 4.86301 -0.00001 0.00001 -90.00000 0.00000 0.00000 2.76499 -0.00001 -0.00001 -70.00000 0.00000 0.00000 8.68901 -0.12600 -2.08700 -80.00000 -0.00000 0.00000 4.53799 -0.00001 0.00002 -90.00000 0.00000 0.00000 2.30500 0.00000 -0.00002 -70.00000 0.00000 0.00000 8.39100 -0.81700 -3.75799 -80.00000 -0.00000 0.00000 3.04401 0.00001 0.00000 -90.00000 0.00000 0.00000 1.97499 -0.00001 0.00000 -70.00000 0.00000 0.00000 -0.93834 -0.37699 0.77676 16.19116 11.80724 36.22328 -12.49499 -0.08018 -0.03043 61.57509 3.57076 36.16160 -20.23654 0.12066 0.27365 118.28937 2.34022 45.80966 -16.23257 -0.08233 0.39784 49.08302 22.22684 -20.39388 -4.87700 -1.04400 3.60800 37.43813 21.26627 8.20656 -2.66498 -0.00001 0.00000 -0.00000 -0.00000 -5.00000 -2.54300 -0.00001 0.00000 0.00000 -0.00000 -60.00000 -9.23199 -0.30100 2.14400 80.00000 0.00000 0.00000 -4.22500 0.00001 0.00001 90.00000 -0.00000 0.00001 -2.65402 -0.00001 0.00001 69.99999 -0.00000 0.00000 -8.92000 0.00000 0.00001 80.00000 0.00000 0.00000 -4.86300 -0.00001 0.00001 90.00000 -0.00000 0.00001 -2.76499 0.00000 0.00001 69.99999 -0.00000 0.00000 -8.68900 -0.12600 -2.08701 80.00000 0.00000 0.00000 -4.53798 -0.00001 -0.00001 90.00000 -0.00000 0.00001 -2.30501 -0.00001 0.00001 69.99999 -0.00000 0.00000 -8.39100 -0.81701 -3.75800 80.00000 0.00000 0.00000 -3.04400 -0.00001 0.00001 90.00000 -0.00000 0.00001 -1.97500 -0.00002 0.00000 69.99999 -0.00000 0.00000 -0.00000 0.74070 0.00000 0.00001 -0.00006 -0.00001 0.05130 6.75049 -0.04770 -10.44068 -7.75524 -1.78830 
